<?xml version="1.0" encoding="UTF-8"?>
<svg width="1395px" height="1395px" viewBox="0 0 1395 1395" version="1.1" xmlns="http://www.w3.org/2000/svg" xmlns:xlink="http://www.w3.org/1999/xlink">
    <title>tidi</title>
    <defs>
        <filter id="filter-1">
            <feColorMatrix in="SourceGraphic" type="matrix" values="0 0 0 0 0.011765 0 0 0 0 0.615686 0 0 0 0 0.568627 0 0 0 1.000000 0"></feColorMatrix>
        </filter>
    </defs>
    <g id="Page-1" stroke="none" stroke-width="1" fill="none" fill-rule="evenodd">
        <g filter="url(#filter-1)" id="tidi">
            <g>
                <path d="M327.5,1394.60739 C288.6,1391.30739 257.2,1384.30739 224.8,1371.70739 C156,1345.00739 99,1299.10739 58.4,1237.80739 C28.4,1192.40739 11.1,1146.40739 2.7,1089.30739 L0.6,1074.80739 L0.2,706.807387 C-0.1,332.507387 -1.9767521e-13,326.407387 3.6,301.307387 C19.7,189.507387 88.4,92.5073868 188.4,40.3073868 C225.2,21.0073868 261.4,9.60738677 306,3.00738677 L320.5,0.907386766 L688.5,0.507386766 C1062.8,0.207386766 1068.9,0.307386766 1094,3.90738677 C1205.8,20.0073868 1302.8,88.7073868 1355,188.707387 C1374.3,225.507387 1385.7,261.707387 1392.3,306.307387 L1394.4,320.807387 L1394.8,688.807387 C1395.1,1063.10739 1395,1069.20739 1391.4,1094.30739 C1377,1193.80739 1321.5,1281.30739 1237.5,1336.90739 C1192.1,1366.90739 1146.1,1384.20739 1089,1392.60739 L1074.5,1394.70739 L703,1394.90739 C498.7,1394.90739 329.7,1394.80739 327.5,1394.60739 Z M967.2,956.207387 C979.4,953.607387 992,944.107387 997.4,933.507387 C1003.4,921.707387 1003,936.407387 1003,701.307387 C1003,510.407387 1003.3,473.907387 1005.3,449.807387 L1005.5,446.807387 L954.4,446.507387 C909.1,446.307387 903.2,446.507387 902.6,447.807387 C902.3,448.707387 901.5,456.307387 900.8,464.707387 L899.6,480.007387 L896,475.407387 C882.6,458.507387 856.6,445.107387 829,440.707387 C814.6,438.407387 784.8,439.207387 770.5,442.307387 C708.1,455.607387 661.8,497.907387 642.2,559.407387 C635.1,581.607387 632.5,601.507387 633.3,629.807387 C634,660.007387 638.9,683.407387 649.3,707.107387 C665.2,743.307387 690.9,770.607387 724.5,787.307387 C749.5,799.707387 767.7,804.207387 796.6,805.007387 C840.1,806.307387 871.6,796.907387 890.9,776.807387 L897,770.507387 L897,863.907387 L897,957.307387 L929.5,957.307387 C949.7,957.307387 963.9,956.907387 967.2,956.207387 Z M573.4,945.707387 C597.1,939.607387 615.5,919.807387 619.7,895.807387 C624.9,866.207387 607.6,836.907387 578.7,826.407387 C572.3,824.107387 570,823.807387 558,823.807387 C541.8,823.807387 535.1,825.707387 523.5,833.507387 C514.1,839.707387 507.9,846.707387 502.9,856.807387 C496.3,870.207387 494.5,884.407387 497.5,898.707387 C502.1,920.307387 520.8,940.007387 542.3,945.807387 C549.5,947.707387 565.8,947.707387 573.4,945.707387 Z M1112.2,944.107387 C1130.6,937.207387 1143.9,924.307387 1150.7,906.507387 C1154.2,897.507387 1155.1,880.007387 1152.5,870.407387 C1147.9,852.607387 1135.9,837.807387 1119.5,829.807387 C1110,825.107387 1102.3,823.307387 1091.5,823.307387 C1074,823.307387 1060.1,829.007387 1048,841.207387 C1039.3,850.007387 1034.8,857.707387 1032,868.907387 C1023.4,902.507387 1042.8,936.507387 1076,945.707387 C1084.7,948.207387 1103.6,947.307387 1112.2,944.107387 Z M385.2,895.507387 C393.6,891.407387 401.9,882.707387 405.2,874.607387 C407.4,869.007387 407.5,867.807387 407.8,833.107387 L408.1,797.307387 L442.1,797.307387 L476,797.307387 L476,750.307387 L476,703.307387 L442,703.307387 L407.9,703.307387 L408.2,631.607387 C408.5,578.107387 408.9,558.907387 409.8,556.207387 C412.8,547.307387 419,541.207387 428.5,537.707387 C434.9,535.407387 457.1,535.307387 467.8,537.507387 L475,539.007387 L474.8,494.407387 L474.5,449.807387 L468,447.507387 C453.9,442.407387 443.2,440.907387 420,440.907387 C401.5,440.907387 397.1,441.207387 388.2,443.107387 C338.4,453.907387 308.7,486.607387 303,536.807387 C302.4,542.107387 302,578.107387 302,624.607387 L302,703.307387 L271,703.307387 L240,703.307387 L240,750.307387 L240,797.307387 L252.8,797.307387 C259.9,797.307387 268.5,798.007387 272.2,798.707387 C287.2,801.907387 299.2,811.207387 305.5,824.507387 C311,836.007387 312,843.607387 312,873.407387 L312,899.407387 L345.3,899.107387 L378.5,898.807387 L385.2,895.507387 Z M587.5,794.407387 C595.8,791.107387 605.8,781.107387 609.1,772.807387 L611.5,766.807387 L611.8,606.607387 L612,446.307387 L558.5,446.307387 L505,446.307387 L505,621.907387 L505,797.407387 L543.3,797.107387 C580.9,796.807387 581.6,796.707387 587.5,794.407387 Z M1122.2,793.607387 C1134.7,787.707387 1142.7,777.407387 1145,764.307387 C1145.7,759.707387 1146,712.207387 1145.8,602.307387 L1145.5,446.807387 L1092.3,446.507387 L1039,446.307387 L1039,621.807387 L1039,797.407387 L1077.3,797.107387 L1115.5,796.807387 L1122.2,793.607387 Z" id="Shape" fill="#000000" fill-rule="nonzero" transform="translate(697.500000, 697.653693) scale(-1, 1) rotate(-180.000000) translate(-697.500000, -697.653693) "></path>
                <path d="M807.5,859.332285 C789.8,856.732285 776.9,850.432285 764.4,837.932285 C756.6,830.232285 754.6,827.432285 750.7,819.432285 C742.7,802.932285 739.3,783.532285 741,763.532285 C742.7,744.932285 746.9,731.832285 755.5,718.832285 C762.7,708.032285 771.2,700.432285 782.5,694.832285 C795.6,688.432285 804.9,686.232285 819.5,686.232285 C851.1,686.332285 876,701.532285 889.1,728.932285 C901.2,753.932285 901.6,790.532285 890.1,815.832285 C881.5,834.832285 866.1,848.832285 846.8,855.532285 C833.6,860.032285 820.8,861.232285 807.5,859.332285 Z" id="Path" fill="#000000" fill-rule="nonzero" transform="translate(819.515221, 773.216143) scale(-1, 1) rotate(-180.000000) translate(-819.515221, -773.216143) "></path>
            </g>
        </g>
    </g>
</svg>